<?xml version="1.0" standalone="no"?>
<!DOCTYPE svg PUBLIC "-//W3C//DTD SVG 20010904//EN"
 "http://www.w3.org/TR/2001/REC-SVG-20010904/DTD/svg10.dtd">
<svg version="1.0" xmlns="http://www.w3.org/2000/svg"
 width="848.000000pt" height="848.000000pt" viewBox="0 0 848.000000 848.000000"
 preserveAspectRatio="xMidYMid meet">
<metadata>
Created by potrace 1.14, written by Peter Selinger 2001-2017
</metadata>
<g transform="translate(0.000000,848.000000) scale(0.100000,-0.100000)"
fill="#000000" stroke="none">
<path d="M3733 7055 c-1 -230 -4 -262 -33 -380 -35 -139 -43 -162 -101 -283
-27 -57 -49 -105 -49 -108 0 -3 -5 -10 -10 -17 -6 -7 -65 -106 -132 -222 -171
-297 -172 -299 -173 -305 -1 -3 -14 -30 -30 -60 -16 -30 -30 -57 -30 -60 -5
-20 -84 -172 -84 -162 -1 6 -6 12 -11 12 -6 0 -16 5 -23 10 -23 20 -138 90
-147 90 -4 0 -10 3 -12 8 -3 6 -85 55 -223 132 -59 33 -322 164 -380 190 -27
12 -66 29 -85 37 -56 26 -273 113 -281 113 -3 0 -23 7 -43 15 -20 8 -37 15
-38 14 -2 0 -27 8 -55 19 -29 11 -53 17 -53 14 0 -4 21 -41 46 -82 74 -123
154 -304 178 -405 10 -42 27 -128 33 -165 6 -43 8 -566 2 -719 l-2 -73 -61 7
c-34 5 -73 8 -88 9 -16 0 -28 3 -28 6 0 3 -17 6 -38 7 -20 0 -68 4 -107 7
-190 16 -292 19 -545 18 -151 -1 -295 -3 -320 -6 -25 -2 -83 -7 -130 -11 -47
-4 -103 -9 -125 -11 -22 -3 -46 -5 -52 -6 -23 -2 -13 -13 59 -58 39 -25 76
-49 82 -55 6 -5 29 -23 50 -39 74 -55 245 -233 259 -269 3 -9 11 -17 17 -17 5
0 10 -4 10 -8 0 -5 23 -47 51 -93 47 -78 75 -134 128 -251 11 -27 31 -69 42
-95 12 -26 22 -52 23 -59 1 -7 7 -18 12 -25 6 -8 17 -30 24 -49 33 -85 186
-409 199 -420 3 -3 19 -30 34 -60 16 -30 37 -68 47 -85 11 -16 27 -43 36 -60
25 -44 209 -320 224 -335 3 -3 18 -23 35 -45 31 -43 99 -118 129 -144 10 -9
26 -23 35 -32 9 -8 32 -26 51 -39 19 -13 37 -27 40 -30 17 -18 179 -98 260
-128 48 -18 136 -41 180 -48 8 -1 38 -6 65 -10 66 -10 360 -11 455 -1 82 9
239 39 329 63 31 8 67 17 80 20 39 8 306 97 311 104 3 4 17 10 31 13 14 4 52
19 85 34 32 14 61 27 64 28 8 1 163 74 180 84 87 53 172 89 220 94 46 5 71 0
155 -30 55 -19 109 -39 120 -44 40 -16 239 -56 330 -66 84 -9 337 -9 415 1 36
4 76 9 90 11 48 6 105 16 119 21 8 2 30 7 50 10 20 3 44 10 53 15 9 5 21 8 25
7 4 -1 42 9 83 22 41 13 77 24 80 25 3 1 14 5 25 9 11 4 45 17 75 28 30 11 74
29 97 39 24 11 45 19 47 19 8 0 221 103 226 110 3 3 28 17 55 30 28 14 52 28
53 33 2 4 7 7 12 7 9 0 110 60 120 70 3 3 27 19 55 35 27 16 54 32 60 37 5 5
42 31 80 58 39 27 75 53 80 57 6 4 40 30 75 58 36 27 70 54 77 60 7 5 18 15
25 20 179 137 512 458 693 669 28 32 59 68 70 81 11 12 34 39 50 59 17 21 35
43 41 50 22 23 234 311 234 318 0 3 -27 -2 -60 -12 -33 -10 -60 -16 -60 -14 0
3 -8 1 -17 -5 -10 -5 -36 -11 -58 -15 -22 -3 -51 -8 -64 -10 -48 -10 -168 -20
-246 -19 -68 0 -200 9 -200 13 0 1 -11 3 -25 5 -52 7 -168 37 -265 67 -55 17
-103 33 -107 34 -5 1 -9 2 -10 4 -2 1 -10 3 -18 5 -37 7 -156 49 -167 58 -7 5
-13 7 -13 4 0 -5 -137 36 -145 44 -4 5 37 107 105 264 28 65 132 356 129 363
0 1 6 22 14 45 26 74 50 156 48 159 -1 2 3 17 9 33 7 17 13 37 15 45 2 8 16
64 30 124 29 120 33 135 41 186 3 19 7 37 9 40 2 3 6 26 10 50 3 25 8 52 10
60 2 8 7 30 10 49 l6 33 -51 -43 c-29 -24 -59 -48 -68 -54 -8 -5 -26 -20 -38
-32 -11 -13 -26 -23 -31 -23 -6 0 -17 -7 -24 -16 -7 -9 -22 -20 -34 -25 -24
-11 -58 -32 -65 -40 -18 -23 -255 -120 -355 -146 -53 -13 -129 -28 -185 -37
-19 -3 -44 -7 -55 -10 -11 -2 -51 -7 -90 -10 -38 -4 -77 -9 -85 -11 -16 -4
-88 -14 -160 -21 -25 -2 -60 -7 -77 -9 -18 -3 -50 -7 -70 -10 -21 -3 -49 -8
-63 -11 -14 -2 -38 -7 -55 -9 -42 -6 -230 -46 -305 -65 -118 -29 -206 -56
-211 -63 -3 -5 -9 -8 -13 -7 -13 3 -71 -13 -83 -22 -7 -6 -13 -7 -13 -4 0 4
-9 2 -21 -4 -39 -21 -59 -20 -75 5 -9 13 -17 30 -18 37 -1 7 -10 30 -19 51 -9
20 -17 39 -17 42 -3 18 -208 423 -247 491 -16 27 -32 56 -36 64 -4 8 -18 33
-32 55 -14 22 -28 47 -32 55 -4 8 -9 17 -12 20 -3 3 -15 21 -25 40 -43 79
-273 420 -368 546 -57 75 -107 143 -113 152 -5 10 -12 19 -15 22 -3 3 -43 50
-89 105 -47 55 -90 105 -96 110 -7 6 -14 17 -17 25 -2 8 -5 -80 -5 -195z"/>
</g>
</svg>
