<?xml version="1.0" standalone="no"?>
<!DOCTYPE svg PUBLIC "-//W3C//DTD SVG 20010904//EN"
 "http://www.w3.org/TR/2001/REC-SVG-20010904/DTD/svg10.dtd">
<svg version="1.0" xmlns="http://www.w3.org/2000/svg"
 width="700.000000pt" height="700.000000pt" viewBox="0 0 700.000000 700.000000"
 preserveAspectRatio="xMidYMid meet">
<metadata>
Created by potrace 1.14, written by Peter Selinger 2001-2017
</metadata>
<g transform="translate(0.000000,700.000000) scale(0.100000,-0.100000)"
fill="#000000" stroke="none">
<path d="M3165 6995 c-5 -2 -41 -13 -80 -25 -147 -46 -270 -120 -389 -235 -11
-11 -52 -28 -91 -37 -163 -41 -306 -147 -364 -271 -55 -116 -76 -279 -49 -387
5 -19 11 -43 13 -54 7 -29 62 -144 84 -175 11 -15 23 -50 27 -77 8 -63 9 -70
24 -124 16 -62 51 -140 61 -140 5 0 9 -7 9 -16 0 -16 39 -70 98 -135 33 -37
125 -97 235 -154 44 -23 67 -43 95 -85 46 -70 47 -72 108 -139 46 -49 58 -74
70 -138 1 -7 -2 -30 -8 -51 -8 -32 -17 -42 -51 -57 -23 -10 -94 -43 -157 -73
-63 -30 -149 -70 -190 -89 -41 -20 -176 -84 -299 -144 -123 -60 -226 -109
-229 -109 -3 0 -26 -17 -51 -37 -164 -133 -232 -279 -241 -514 -4 -102 -4
-391 0 -513 4 -129 37 -208 112 -271 48 -41 71 -48 183 -59 33 -4 74 -8 90
-11 17 -2 54 -5 83 -6 52 -2 52 -2 63 -43 5 -23 19 -72 29 -111 85 -311 81
-282 52 -356 -13 -35 -28 -73 -33 -84 -12 -28 -80 -227 -84 -245 -1 -8 -11
-42 -21 -75 -10 -33 -19 -64 -20 -70 -2 -5 -16 -58 -32 -117 -16 -60 -27 -108
-25 -108 3 0 0 -7 -7 -15 -7 -8 -10 -15 -7 -15 3 0 1 -15 -4 -32 -5 -18 -12
-49 -15 -68 -3 -19 -10 -54 -15 -78 -10 -46 -14 -246 -5 -261 3 -4 7 -24 10
-43 5 -44 27 -120 38 -133 4 -5 8 -15 8 -23 0 -13 74 -209 107 -281 41 -93
145 -302 177 -357 l36 -61 -82 -2 c-51 -1 -85 -7 -90 -14 -5 -8 -8 -9 -8 -1 0
8 -27 10 -87 8 -49 -3 -173 -6 -278 -8 -104 -2 -197 -7 -205 -10 -53 -24 -76
-126 -42 -192 37 -72 -21 -67 770 -66 854 2 606 2 1545 0 l787 -1 27 24 c29
27 53 77 53 111 0 13 -11 43 -24 68 -30 57 -25 55 -281 75 -22 2 -45 4 -51 4
-8 1 -2 28 16 75 31 83 114 374 130 451 5 28 12 60 15 73 9 40 12 57 19 105 4
27 9 58 12 70 7 36 18 118 31 232 4 33 7 132 7 220 -2 162 -15 249 -61 390
-28 86 -111 246 -192 370 -25 39 -48 75 -51 81 -3 5 -39 56 -80 113 -62 86
-75 109 -75 142 0 21 3 39 6 39 3 0 6 6 6 13 1 21 14 171 18 197 2 14 7 66 11
115 8 103 12 147 13 157 1 6 65 28 91 32 27 4 128 77 178 127 222 229 315 493
278 799 -14 120 -53 251 -89 305 -31 46 -100 115 -114 115 -7 0 -13 5 -13 10
0 15 -97 55 -207 85 -54 15 -108 31 -121 36 -13 5 -33 9 -46 9 -12 0 -26 3
-30 7 -3 4 -14 8 -24 9 -9 2 -33 8 -52 13 -19 6 -73 22 -119 35 -60 16 -87 29
-91 42 -4 11 -8 55 -9 99 -2 65 1 84 16 100 76 86 110 134 167 238 32 58 77
167 69 167 -3 0 -1 6 5 13 8 10 28 85 48 182 18 88 24 351 10 465 -12 106 -51
259 -87 345 -6 17 -13 35 -15 42 -3 16 -75 157 -113 221 -50 85 -106 156 -156
198 -26 21 -52 44 -58 49 -22 20 -113 72 -138 80 -13 3 -40 14 -59 23 -29 14
-74 17 -275 19 -132 1 -244 1 -250 -2z m408 -284 l28 -1 -37 -47 c-21 -27 -41
-51 -44 -55 -3 -4 -39 -14 -80 -23 -93 -19 -204 -71 -259 -120 -22 -20 -55
-67 -73 -103 -28 -57 -33 -78 -36 -161 -2 -61 1 -118 11 -158 l14 -61 -32 -6
c-40 -8 -95 -58 -96 -89 -5 -72 -4 -96 4 -137 5 -25 9 -58 8 -73 0 -34 -51
-142 -84 -178 -40 -44 -60 -51 -101 -34 -45 19 -134 107 -148 146 -5 16 -15
26 -21 22 -6 -3 -7 -1 -3 5 4 7 0 40 -8 74 -8 35 -20 88 -25 119 -6 34 -22 75
-41 103 -48 71 -73 150 -76 243 -3 76 -1 84 26 121 42 59 99 97 157 108 6 1
55 15 108 31 79 23 101 33 118 58 86 119 225 196 397 218 22 3 212 2 293 -2z
m-278 -1221 c60 -86 159 -158 263 -190 55 -17 58 -20 117 -111 l61 -94 -26
-21 c-32 -26 -96 -51 -174 -68 -49 -10 -74 -10 -129 0 -126 24 -219 84 -295
192 l-42 60 30 33 c42 47 117 160 135 203 8 20 19 36 24 36 4 0 21 -18 36 -40z
m415 -775 c0 -35 0 -34 21 -90 10 -27 19 -50 19 -51 0 -1 -33 -16 -72 -34 -40
-18 -138 -64 -217 -102 -79 -37 -145 -68 -146 -68 -2 0 -56 -25 -121 -56 -358
-169 -384 -186 -456 -291 -64 -94 -75 -145 -78 -364 -4 -341 -3 -515 4 -551
15 -81 100 -113 285 -106 l94 3 67 -160 c37 -89 94 -222 128 -296 l61 -135
-45 -114 c-84 -215 -234 -714 -234 -782 0 -12 -11 -15 -51 -12 -36 1 -71 -5
-118 -23 -89 -34 -336 -122 -388 -138 -51 -16 -54 -10 -37 65 7 30 15 69 18
85 3 17 10 50 16 75 7 25 13 52 15 60 6 28 24 95 40 155 10 33 19 68 20 77 2
9 9 27 16 40 7 13 12 25 11 28 -1 3 7 34 19 69 11 35 18 70 15 78 -3 8 -2 12
3 8 5 -3 24 39 42 92 18 54 45 128 60 164 26 64 26 68 13 120 -8 30 -30 115
-50 189 -19 74 -37 142 -39 150 -27 104 -68 255 -90 335 -15 55 -35 132 -45
170 -27 105 -35 120 -75 145 -47 29 -112 33 -164 9 -62 -27 -68 -49 -70 -231
l-1 -78 -27 0 c-16 0 -39 9 -53 20 l-25 19 -1 276 c-1 151 3 299 8 328 23 126
100 220 228 277 41 18 144 66 228 107 84 40 154 73 156 73 2 0 61 28 132 62
71 34 131 63 134 63 7 1 178 82 215 102 74 39 123 120 126 205 l2 45 41 -8
c52 -10 281 -3 321 10 44 14 45 13 45 -14z m-346 -4371 c14 -31 26 -58 26 -61
0 -2 -54 -3 -119 -1 -96 2 -118 5 -109 15 6 7 17 13 24 13 8 0 14 5 14 10 0 6
3 9 8 8 9 -3 70 29 101 53 13 11 25 19 27 19 1 0 14 -25 28 -56z"/>
<path d="M5093 261 c-31 -11 -47 -25 -59 -49 -8 -18 -13 -40 -10 -47 3 -8 1
-15 -4 -17 -15 -5 6 -69 33 -102 20 -24 34 -31 81 -36 31 -3 56 -3 56 2 0 4 7
5 16 1 11 -4 27 7 50 32 27 30 34 47 34 79 0 46 -18 103 -41 129 -21 23 -103
28 -156 8z"/>
</g>
</svg>
