<svg width="53" height="44" viewBox="0 0 53 44" fill="none" xmlns="http://www.w3.org/2000/svg">
<path d="M18.2652 17.7987C16.3756 24.1983 24.2778 29.8587 28.4652 31.889C37.2441 24.1727 28.8594 9.6431 23.4328 3.45518C23.9235 9.48995 20.6272 9.79921 18.2652 17.7987Z" fill="black"/>
<path d="M28.4652 31.889C24.2778 29.8587 16.3756 24.1983 18.2652 17.7987C20.6272 9.79921 23.9235 9.48995 23.4328 3.45518C28.8594 9.6431 37.2441 24.1727 28.4652 31.889ZM28.4652 31.889C28.3019 31.3591 28.122 30.7607 27.9316 30.1108C27.802 29.6683 27.6675 29.202 27.5302 28.7171M24.1805 7.2067C24.3341 7.39367 24.8041 8.39884 24.7427 10.8419M26.5655 25.1622L28.479 23.223M26.5655 25.1622C26.5255 25.0078 26.4856 24.8528 26.4459 24.6975M26.5655 25.1622C26.7914 26.0341 27.0214 26.8898 27.2474 27.707M26.4459 24.6975L22.9454 20.7552M26.4459 24.6975C26.318 24.1973 26.192 23.6931 26.0693 23.1892M25.737 21.7871L26.573 18.451M25.737 21.7871C25.5981 21.184 25.4662 20.5868 25.3438 20.0028M25.737 21.7871C25.8441 22.252 25.9553 22.7205 26.0693 23.1892M25.3438 20.0028L23.7099 18.5187M25.3438 20.0028C25.1656 19.1526 25.0078 18.3304 24.8786 17.5587M24.8786 17.5587L26.8637 15.2552M24.8786 17.5587C24.833 17.2864 24.7909 17.0203 24.7528 16.7616M24.5844 15.4136L23.0358 13.5284M24.5844 15.4136C24.6257 15.8342 24.6826 16.2856 24.7528 16.7616M24.5844 15.4136C24.5661 15.2279 24.5508 15.0481 24.5388 14.8749M24.7528 16.7616L22.9368 14.5508M27.2474 27.707L23.2723 23.3809M27.2474 27.707C27.3426 28.0511 27.437 28.3884 27.5302 28.7171M27.5302 28.7171L29.1284 25.5221M26.0693 23.1892L27.9612 21.6352M24.5635 13.1196C24.5592 13.1548 24.5547 13.1901 24.5501 13.2256C24.4939 13.664 24.4935 14.2232 24.5388 14.8749M24.5635 13.1196L26.154 11.8132M24.5635 13.1196C24.613 12.7229 24.6512 12.35 24.6797 11.9998M24.5388 14.8749L25.7405 13.8878M24.7427 10.8419L25.4856 9.48631M24.7427 10.8419C24.7338 11.1969 24.7136 11.5822 24.6797 11.9998M24.6797 11.9998L24.0785 10.0333" stroke="white" stroke-width="0.220821"/>
<path d="M35.7823 18.4565C29.3225 17.8959 26.2657 26.2355 25.5447 30.4753C35.1378 37.1505 46.2866 26.7256 50.5197 20.5733C45.0588 22.142 43.8571 19.1571 35.7823 18.4565Z" fill="black"/>
<path d="M25.5447 30.4753C26.2657 26.2355 29.3225 17.8959 35.7823 18.4565C43.8571 19.1571 45.0588 22.142 50.5197 20.5733C46.2866 26.7256 35.1378 37.1505 25.5447 30.4753ZM25.5447 30.4753C25.9909 30.2266 26.496 29.9499 27.0459 29.6541C27.4203 29.4526 27.8155 29.2423 28.2271 29.0259M47.2477 21.957C47.117 22.1333 46.3151 22.7529 44.0322 23.148M31.2564 27.4783L33.586 28.8856M31.2564 27.4783C31.3886 27.4128 31.5212 27.3473 31.6543 27.282M31.2564 27.4783C30.5105 27.8479 29.7807 28.2185 29.0855 28.5781M31.6543 27.282L34.3392 23.3225M31.6543 27.282C32.0827 27.0715 32.5153 26.862 32.9487 26.6555M34.1569 26.0896L37.483 26.2442M34.1569 26.0896C34.6777 25.8499 35.195 25.6177 35.7026 25.3967M34.1569 26.0896C33.7553 26.2744 33.3517 26.4636 32.9487 26.6555M35.7026 25.3967L36.6256 23.6144M35.7026 25.3967C36.4417 25.0751 37.1605 24.7774 37.8403 24.5155M37.8403 24.5155L40.5277 25.9216M37.8403 24.5155C38.0802 24.423 38.3153 24.335 38.5447 24.252M39.7481 23.8473L41.0669 22.0695M39.7481 23.8473C39.3696 23.9633 38.9667 24.0992 38.5447 24.252M39.7481 23.8473C39.9153 23.7961 40.0778 23.7488 40.2351 23.7056M38.5447 24.252L40.0911 22.1673M29.0855 28.5781L31.9946 24.1097M29.0855 28.5781C28.7928 28.7296 28.5062 28.8791 28.2271 29.0259M28.2271 29.0259L31.634 29.9101M32.9487 26.6555L34.915 28.1141M41.87 23.4039C41.8362 23.4063 41.8022 23.4088 41.768 23.4111C41.3458 23.4402 40.8271 23.5433 40.2351 23.7056M41.87 23.4039L43.5231 24.6301M41.87 23.4039C42.2516 23.3762 42.6081 23.3425 42.9408 23.304M40.2351 23.7056L41.4842 24.6322M44.0322 23.148L45.4957 23.583M44.0322 23.148C43.7005 23.2054 43.3375 23.2581 42.9408 23.304M42.9408 23.304L44.5978 22.3855" stroke="white" stroke-width="0.220821"/>
<path d="M13.1851 25.1929C14.4624 31.5499 23.3249 32.1401 27.5965 31.6405C31.3069 20.5582 18.1692 12.7882 11.0753 10.4545C14.1154 15.2545 11.5884 17.2465 13.1851 25.1929Z" fill="black"/>
<path d="M27.5965 31.6405C23.3249 32.1401 14.4624 31.5499 13.1851 25.1929C11.5884 17.2465 14.1154 15.2545 11.0753 10.4545C18.1692 12.7882 31.3069 20.5582 27.5965 31.6405ZM27.5965 31.6405C27.2324 31.2822 26.8249 30.8752 26.3865 30.4307C26.0879 30.1279 25.775 29.8077 25.4517 29.4736M13.3227 13.2058C13.5287 13.2817 14.3486 13.8771 15.3693 15.957M23.1152 27.0012L23.8111 24.37M23.1152 27.0012C23.0152 26.8928 22.9151 26.7839 22.815 26.6745M23.1152 27.0012C23.6795 27.6132 24.2402 28.2095 24.7808 28.7756M22.815 26.6745L18.2605 25.2105M22.815 26.6745C22.4926 26.3225 22.1699 25.9662 21.85 25.6083M20.9674 24.6079L20.1811 21.3723M20.9674 24.6079C20.591 24.1754 20.2228 23.7442 19.8681 23.3191M20.9674 24.6079C21.2575 24.9413 21.5526 25.2755 21.85 25.6083M19.8681 23.3191L17.8982 22.9342M19.8681 23.3191C19.3517 22.7002 18.8641 22.094 18.4216 21.5152M18.4216 21.5152L19.0159 18.5409M18.4216 21.5152C18.2655 21.3109 18.115 21.11 17.9708 20.9132M17.2443 19.872L15.1675 19.106M17.2443 19.872C17.4619 20.2027 17.7056 20.5511 17.9708 20.9132M17.2443 19.872C17.1481 19.7259 17.0571 19.5833 16.9715 19.4444M17.9708 20.9132L15.5355 20.0149M24.7808 28.7756L19.6749 27.2393M24.7808 28.7756C25.0084 29.0139 25.2324 29.247 25.4517 29.4736M25.4517 29.4736L25.3429 25.9555M21.85 25.6083L22.6973 23.3113M16.2225 17.9603C16.2343 17.992 16.2462 18.024 16.2581 18.0561C16.4047 18.4531 16.6494 18.9219 16.9715 19.4444M16.2225 17.9603L16.9348 16.0292M16.2225 17.9603C16.0886 17.6018 15.9561 17.2691 15.8257 16.9606M16.9715 19.4444L17.5097 17.9854M15.3693 15.957L15.3756 14.4303M15.3693 15.957C15.5176 16.2592 15.6702 16.5928 15.8257 16.9606M15.8257 16.9606L14.4786 15.6285" stroke="white" stroke-width="0.220821"/>
<path d="M29.9838 15.0131C23.9016 17.2603 24.6921 26.1071 25.8477 30.2497C37.3711 32.1977 43.0111 18.0145 44.2171 10.6446C39.9463 14.3919 37.5867 12.2042 29.9838 15.0131Z" fill="black"/>
<path d="M25.8477 30.2497C24.6921 26.1071 23.9016 17.2603 29.9839 15.0131C37.5867 12.2042 39.9463 14.3919 44.2171 10.6446C43.0111 18.0145 37.3711 32.1977 25.8477 30.2497ZM25.8477 30.2497C26.1453 29.8345 26.4841 29.3689 26.8554 28.8668C27.1082 28.5249 27.376 28.1662 27.656 27.795M41.8474 13.2912C41.8043 13.5065 41.3432 14.4088 39.4466 15.7395M29.7364 25.1035L32.4437 25.3833M29.7364 25.1035C29.828 24.9879 29.9201 24.8721 30.0126 24.7563M29.7364 25.1035C29.2193 25.7559 28.7171 26.4022 28.2416 27.024M30.0126 24.7563L30.7531 20.03M30.0126 24.7563C30.3104 24.3832 30.6124 24.0092 30.9164 23.6378M31.7679 22.6107L34.8425 21.3325M31.7679 22.6107C32.1369 22.1718 32.5057 21.7412 32.8708 21.325M31.7679 22.6107C31.4835 22.949 31.1991 23.2923 30.9164 23.6378M32.8708 21.325L32.9457 19.3192M32.8708 21.325C33.4022 20.7189 33.9254 20.1432 34.4287 19.6164M34.4287 19.6164L37.4591 19.7425M34.4287 19.6164C34.6063 19.4305 34.7814 19.2506 34.9535 19.0777M35.8695 18.1986L36.3044 16.0282M35.8695 18.1986C35.5765 18.4649 35.2701 18.7596 34.9535 19.0777M35.8695 18.1986C35.999 18.081 36.1258 17.9689 36.2497 17.8628M34.9535 19.0777L35.4635 16.5327M28.2416 27.024L28.968 21.7417M28.2416 27.024C28.0414 27.2858 27.8459 27.5432 27.656 27.795M27.656 27.795L31.1147 27.1423M30.9164 23.6378L33.3169 24.1188M37.5998 16.8928C37.5703 16.9095 37.5406 16.9261 37.5106 16.9429C37.1412 17.1492 36.7159 17.4636 36.2497 17.8628M37.5998 16.8928L39.618 17.2972M37.5998 16.8928C37.9332 16.705 38.2413 16.5226 38.5259 16.3459M36.2497 17.8628L37.7745 18.1684M39.4466 15.7395L40.9559 15.5091M39.4466 15.7395C39.171 15.9329 38.8652 16.1353 38.5259 16.3459M38.5259 16.3459L39.6331 14.8086" stroke="white" stroke-width="0.220821"/>
<path d="M11.5103 31.7256C15.376 36.9313 23.6443 33.6866 27.2952 31.4135C25.9265 19.807 10.7299 18.3798 3.31814 19.2934C8.11455 22.3392 6.67808 25.2184 11.5103 31.7256Z" fill="black"/>
<path d="M27.2952 31.4135C23.6443 33.6866 15.376 36.9313 11.5103 31.7256C6.67808 25.2184 8.11455 22.3392 3.31814 19.2934C10.7299 18.3798 25.9265 19.807 27.2952 31.4135ZM27.2952 31.4135C26.8131 31.2446 26.271 31.0502 25.6849 30.835C25.2857 30.6884 24.8662 30.5322 24.4312 30.3678M6.52402 20.8239C6.74271 20.8048 7.73827 20.9938 9.54832 22.44M21.2636 29.1275L20.7713 26.4508M21.2636 29.1275C21.1269 29.0721 20.99 29.0163 20.8528 28.9601M21.2636 29.1275C22.035 29.4405 22.7964 29.7408 23.5267 30.0224M20.8528 28.9601L16.1088 29.5776M20.8528 28.9601C20.4111 28.7791 19.9673 28.5944 19.5254 28.407M18.3004 27.8784L16.2097 25.2869M18.3004 27.8784C17.7755 27.6477 17.2586 27.4146 16.7565 27.1813M18.3004 27.8784C18.705 28.0563 19.1144 28.2328 19.5254 28.407M16.7565 27.1813L14.8106 27.673M16.7565 27.1813C16.0256 26.8416 15.3261 26.5012 14.679 26.1663M14.679 26.1663L13.9485 23.2225M14.679 26.1663C14.4507 26.048 14.2289 25.9305 14.0146 25.8139M12.9135 25.1819L10.7084 25.3744M12.9135 25.1819C13.2514 25.3883 13.6203 25.5995 14.0146 25.8139M12.9135 25.1819C12.7642 25.0907 12.621 25.0005 12.4844 24.9114M14.0146 25.8139L11.4288 26.0397M23.5267 30.0224L18.2532 30.8097M23.5267 30.0224C23.8343 30.141 24.1363 30.2563 24.4312 30.3678M24.4312 30.3678L22.8329 27.2319M19.5254 28.407L19.3124 25.968M11.1741 23.8883C11.1984 23.9119 11.2227 23.9358 11.2472 23.9598C11.5491 24.2564 11.9703 24.5761 12.4844 24.9114M11.1741 23.8883L10.9951 21.8378M11.1741 23.8883C10.9002 23.621 10.6385 23.3767 10.389 23.1532M12.4844 24.9114L12.3492 23.3622M9.54832 22.44L8.90302 21.0563M9.54832 22.44C9.81132 22.6501 10.0915 22.8868 10.389 23.1532M10.389 23.1532L8.60253 22.5225" stroke="white" stroke-width="0.220821"/>
</svg>
