<?xml version="1.0" encoding="UTF-8"?>
<!DOCTYPE svg PUBLIC "-//W3C//DTD SVG 1.1//EN" "http://www.w3.org/Graphics/SVG/1.1/DTD/svg11.dtd">
<svg xmlns="http://www.w3.org/2000/svg" version="1.1" width="512px" height="512px" style="shape-rendering:geometricPrecision; text-rendering:geometricPrecision; image-rendering:optimizeQuality; fill-rule:evenodd; clip-rule:evenodd" xmlns:xlink="http://www.w3.org/1999/xlink">
<g><path style="opacity:0.97" fill="#010101" d="M 236.5,-0.5 C 244.833,-0.5 253.167,-0.5 261.5,-0.5C 275.098,1.89052 286.265,8.55719 295,19.5C 314.368,47.0047 320.702,77.338 314,110.5C 310.663,125.845 303.663,139.178 293,150.5C 292.171,155.533 292.338,160.533 293.5,165.5C 307.494,169.332 321.494,173.165 335.5,177C 348.047,181.547 355.547,190.381 358,203.5C 364.37,231.963 356.87,255.796 335.5,275C 330.798,278.851 325.465,281.351 319.5,282.5C 318.613,296.424 317.28,310.257 315.5,324C 326.247,337.432 335.414,351.932 343,367.5C 348.736,382.322 350.736,397.655 349,413.5C 346.711,440.153 340.878,465.986 331.5,491C 339.271,491.066 346.938,491.733 354.5,493C 360.205,499.923 359.538,506.089 352.5,511.5C 278.167,511.5 203.833,511.5 129.5,511.5C 124.754,507.658 123.254,502.658 125,496.5C 126.167,494.667 127.667,493.167 129.5,492C 147.509,491.833 165.509,491.333 183.5,490.5C 172.838,472.507 164.338,453.507 158,433.5C 155.128,423.247 154.795,412.913 157,402.5C 161.916,379.252 168.75,356.585 177.5,334.5C 174.667,323.833 171.833,313.167 169,302.5C 160.836,301.919 152.67,301.086 144.5,300C 135.877,295.93 131.377,289.097 131,279.5C 130.333,265.167 130.333,250.833 131,236.5C 131.608,221.115 138.108,208.948 150.5,200C 173.348,188.743 196.348,177.743 219.5,167C 221.938,159.735 220.104,153.902 214,149.5C 210.753,145.341 207.753,141.008 205,136.5C 198.654,133.408 192.487,129.908 186.5,126C 175.716,116.264 169.883,104.097 169,89.5C 157.195,72.5191 156.195,55.1858 166,37.5C 173.667,28.1747 183.5,22.6747 195.5,21C 206.781,9.19101 220.448,2.02434 236.5,-0.5 Z M 263.5,21.5 C 261.14,23.8652 259.14,26.5319 257.5,29.5C 230.058,32.9162 219.724,47.9162 226.5,74.5C 222.263,74.8654 219.096,76.8654 217,80.5C 216.327,85.7756 216.827,90.9423 218.5,96C 217.253,103.322 213.586,109.155 207.5,113.5C 200.924,111.09 196.091,106.756 193,100.5C 191.099,94.2988 189.765,87.9654 189,81.5C 182.488,73.6324 179.822,64.6324 181,54.5C 182.779,50.3882 185.612,47.2215 189.5,45C 196.186,42.9992 202.853,40.9992 209.5,39C 216.6,28.439 226.6,22.439 239.5,21C 247.528,20.3017 255.528,20.4683 263.5,21.5 Z M 238.5,106.5 C 244.294,116.609 252.96,122.942 264.5,125.5C 267.511,130.195 270.511,134.862 273.5,139.5C 259.535,149.171 245.868,148.671 232.5,138C 229.642,134.642 226.975,131.142 224.5,127.5C 230.443,121.261 235.109,114.261 238.5,106.5 Z M 274.5,177.5 C 253.526,187.319 232.526,197.153 211.5,207C 202.664,212.509 197.164,220.342 195,230.5C 194.5,246.83 194.333,263.163 194.5,279.5C 193.861,284.384 195.527,288.217 199.5,291C 207.166,292.764 214.832,292.931 222.5,291.5C 228.438,306.307 234.772,320.974 241.5,335.5C 232.489,357.213 225.489,379.547 220.5,402.5C 217.887,401.565 215.221,401.398 212.5,402C 200.947,406.462 189.281,410.629 177.5,414.5C 177.167,414.167 176.833,413.833 176.5,413.5C 181.634,386.931 189.3,361.097 199.5,336C 193.235,311.44 186.735,286.94 180,262.5C 174.914,256.884 169.081,256.051 162.5,260C 161.299,260.903 160.465,262.069 160,263.5C 159.501,269.491 159.334,275.491 159.5,281.5C 156.305,282.039 153.805,281.039 152,278.5C 151.333,264.5 151.333,250.5 152,236.5C 152.893,228.206 156.727,221.706 163.5,217C 186.833,206 210.167,195 233.5,184C 239.525,179.771 242.192,173.938 241.5,166.5C 251.577,168.029 261.577,167.696 271.5,165.5C 271.279,169.832 272.279,173.832 274.5,177.5 Z M 244.5,482.5 C 245.561,485.622 246.895,488.622 248.5,491.5C 242.158,491.666 235.825,491.5 229.5,491C 234.852,488.661 239.852,485.828 244.5,482.5 Z"/></g>
<g><path style="opacity:0.968" fill="#ebeaea" d="M 263.5,21.5 C 274.892,26.2071 282.226,34.2071 285.5,45.5C 277.034,40.9666 268.034,38.7999 258.5,39C 255.272,40.5629 253.105,43.0629 252,46.5C 251.277,57.3861 246.777,66.2194 238.5,73C 234.605,74.2662 230.605,74.7662 226.5,74.5C 219.724,47.9162 230.058,32.9162 257.5,29.5C 259.14,26.5319 261.14,23.8652 263.5,21.5 Z"/></g>
<g><path style="opacity:0.987" fill="#edecec" d="M 273.5,139.5 C 270.511,134.862 267.511,130.195 264.5,125.5C 252.96,122.942 244.294,116.609 238.5,106.5C 238.607,102.083 239.274,97.7494 240.5,93.5C 247.83,91.344 253.997,87.344 259,81.5C 263.424,75.1515 266.924,68.3181 269.5,61C 278.783,63.812 287.116,68.4786 294.5,75C 299.106,99.6743 292.773,121.008 275.5,139C 274.906,139.464 274.239,139.631 273.5,139.5 Z"/></g>
<g><path style="opacity:0.991" fill="#cfd1d2" d="M 274.5,177.5 C 277.463,180.951 281.13,183.451 285.5,185C 299.234,188.364 312.901,192.031 326.5,196C 332.904,197.281 336.737,201.115 338,207.5C 343.218,229.54 337.051,247.373 319.5,261C 317.754,261.471 316.087,262.138 314.5,263C 298.167,263.333 281.833,263.667 265.5,264C 258.375,268.876 257.709,274.543 263.5,281C 264.745,281.791 266.078,282.291 267.5,282.5C 277.653,283.494 287.986,283.828 298.5,283.5C 298.5,284.833 298.5,286.167 298.5,287.5C 297.484,300.505 296.318,313.505 295,326.5C 286.531,347.304 273.198,364.304 255,377.5C 252.345,381.565 251.845,385.898 253.5,390.5C 250.482,391.855 249.149,394.188 249.5,397.5C 246.135,390.551 240.801,388.717 233.5,392C 228.323,397.463 228.323,402.963 233.5,408.5C 230.592,409.287 227.926,410.62 225.5,412.5C 224.915,408.663 223.248,405.33 220.5,402.5C 225.489,379.547 232.489,357.213 241.5,335.5C 234.772,320.974 228.438,306.307 222.5,291.5C 239.829,288.165 251.162,278.165 256.5,261.5C 254.761,252.963 249.761,250.13 241.5,253C 237.95,256.883 234.783,261.049 232,265.5C 229.331,268.164 226.164,269.998 222.5,271C 215.833,271.333 209.167,271.667 202.5,272C 198.65,273.353 195.983,275.853 194.5,279.5C 194.333,263.163 194.5,246.83 195,230.5C 197.164,220.342 202.664,212.509 211.5,207C 232.526,197.153 253.526,187.319 274.5,177.5 Z"/></g>
<g><path style="opacity:0.983" fill="#040404" d="M 222.5,291.5 C 214.832,292.931 207.166,292.764 199.5,291C 195.527,288.217 193.861,284.384 194.5,279.5C 195.983,275.853 198.65,273.353 202.5,272C 209.167,271.667 215.833,271.333 222.5,271C 226.164,269.998 229.331,268.164 232,265.5C 234.783,261.049 237.95,256.883 241.5,253C 249.761,250.13 254.761,252.963 256.5,261.5C 251.162,278.165 239.829,288.165 222.5,291.5 Z"/></g>
<g><path style="opacity:1" fill="#535455" d="M 267.5,282.5 C 278.167,282.5 288.833,282.5 299.5,282.5C 299.784,284.415 299.451,286.081 298.5,287.5C 298.5,286.167 298.5,284.833 298.5,283.5C 287.986,283.828 277.653,283.494 267.5,282.5 Z"/></g>
<g><path style="opacity:0.998" fill="#ced0d1" d="M 248.5,491.5 C 246.895,488.622 245.561,485.622 244.5,482.5C 287.714,454.361 311.881,414.361 317,362.5C 325.29,374.536 329.456,387.869 329.5,402.5C 328.433,416.6 326.6,430.6 324,444.5C 319.795,460.279 315.295,475.946 310.5,491.5C 289.833,491.5 269.167,491.5 248.5,491.5 Z"/></g>
<g><path style="opacity:1" fill="#ecebeb" d="M 225.5,412.5 C 227.926,410.62 230.592,409.287 233.5,408.5C 243.675,411.752 249.008,408.085 249.5,397.5C 249.149,394.188 250.482,391.855 253.5,390.5C 257.41,394.745 262.077,395.579 267.5,393C 278.333,384.833 287.833,375.333 296,364.5C 291.423,408.842 270.256,442.676 232.5,466C 223.005,471.497 213.172,476.331 203,480.5C 201.233,479.66 199.899,478.327 199,476.5C 191.875,463.417 185.708,449.917 180.5,436C 180.905,435.055 181.572,434.388 182.5,434C 195.813,430.175 208.813,425.509 221.5,420C 223.54,417.815 224.874,415.315 225.5,412.5 Z"/></g>
<g><path style="opacity:1" fill="#070707" d="M 249.5,397.5 C 249.008,408.085 243.675,411.752 233.5,408.5C 228.323,402.963 228.323,397.463 233.5,392C 240.801,388.717 246.135,390.551 249.5,397.5 Z"/></g>
<g><path style="opacity:0.901" fill="#000000" d="M 381.5,511.5 C 378.5,511.5 375.5,511.5 372.5,511.5C 366.165,506.642 365.165,500.809 369.5,494C 381.629,488.474 387.462,492.307 387,505.5C 385.64,508.023 383.807,510.023 381.5,511.5 Z"/></g>
</svg>
