<?xml version="1.0" encoding="utf-8"?><svg viewBox="0 0 321 75" xmlns="http://www.w3.org/2000/svg" xmlns:xlink="http://www.w3.org/1999/xlink"><style>:root>svg{display:none}:root>svg:target{display:block}</style><svg fill="none" viewBox="0 0 59 59" id="chevronbig-left" xmlns="http://www.w3.org/2000/svg"><g clip-path="url(#aa)"><path d="m26.358 29.17 11.954 11.954-3.415 3.414L19.528 29.17 34.898 13.8l3.414 3.415-11.954 11.954Z" fill="#fff"/></g><defs><clipPath id="aa"><path fill="#fff" transform="translate(.206 .19)" d="M0 0h57.96v57.96H0z"/></clipPath></defs></svg><svg fill="none" viewBox="0 0 76 75" id="chevronbig-right" xmlns="http://www.w3.org/2000/svg"><g clip-path="url(#ba)"><path d="M41.59 37.17 26.254 52.508l4.38 4.38 19.718-19.716-19.717-19.717-4.381 4.38L41.59 37.171Z" fill="#fff"/></g><defs><clipPath id="ba"><path fill="#fff" transform="matrix(-1 0 0 1 75.145 -.009)" d="M0 0h74.357v74.357H0z"/></clipPath></defs></svg><svg fill="none" viewBox="0 0 20 20" id="chevronsmall-left" xmlns="http://www.w3.org/2000/svg"><g clip-path="url(#ca)"><path d="m8.967 10.034 3.846-3.846-1.098-1.099-4.945 4.945 4.945 4.945 1.098-1.098-3.846-3.847Z" fill="#fff"/></g><defs><clipPath id="ca"><path fill="#fff" transform="matrix(-1 0 0 1 19.202 .71)" d="M0 0h18.649v18.649H0z"/></clipPath></defs></svg><svg fill="none" viewBox="0 0 20 20" id="chevronsmall-right" xmlns="http://www.w3.org/2000/svg"><g clip-path="url(#da)"><path d="M10.937 10.034 7.091 6.188 8.19 5.089l4.945 4.945L8.19 14.98l-1.1-1.098 3.847-3.847Z" fill="#fff"/></g><defs><clipPath id="da"><path fill="#fff" transform="translate(.702 .71)" d="M0 0h18.649v18.649H0z"/></clipPath></defs></svg><svg fill="none" viewBox="0 0 25 25" id="location" xmlns="http://www.w3.org/2000/svg"><g clip-path="url(#ea)"><path d="M12.376 23.759 6.01 17.395a9 9 0 1 1 12.729 0l-6.364 6.364Zm4.95-7.778a7 7 0 1 0-9.9 0l4.95 4.95 4.95-4.95Zm-4.95-2.95a2 2 0 1 1 0-4 2 2 0 0 1 0 4Z" fill="#fff"/></g><defs><clipPath id="ea"><path fill="#fff" transform="translate(.375 .03)" d="M0 0h24v24H0z"/></clipPath></defs></svg><svg fill="none" viewBox="0 0 25 25" id="mail" xmlns="http://www.w3.org/2000/svg"><g clip-path="url(#fa)"><path d="M3.375 3.684h18a1 1 0 0 1 1 1v16a1 1 0 0 1-1 1h-18a1 1 0 0 1-1-1v-16a1 1 0 0 1 1-1Zm17 4.238-7.928 7.1L4.376 7.9v11.784h16V7.922ZM4.886 5.684l7.55 6.662 7.442-6.662H4.886Z" fill="#fff"/></g><defs><clipPath id="fa"><path fill="#fff" transform="translate(.375 .684)" d="M0 0h24v24H0z"/></clipPath></defs></svg><svg fill="none" viewBox="0 0 321 71" id="wavy-line" xmlns="http://www.w3.org/2000/svg"><path d="M1.761 47.57c33.935-30.965 127.254-76.861 229.056-12.726C332.619 98.98 418.302 56.477 448.419 27.21" stroke="#fff" stroke-width="3.419"/></svg></svg>