<svg width="25" height="25" viewBox="0 0 25 25" fill="none" xmlns="http://www.w3.org/2000/svg">
<g clip-path="url(#clip0_2_127)">
<path d="M12.3755 23.7587L6.01149 17.3947C4.75283 16.136 3.89567 14.5324 3.54842 12.7865C3.20116 11.0407 3.3794 9.23111 4.06059 7.58659C4.74178 5.94206 5.89533 4.53646 7.37537 3.54753C8.85541 2.5586 10.5955 2.03076 12.3755 2.03076C14.1555 2.03076 15.8956 2.5586 17.3756 3.54753C18.8557 4.53646 20.0092 5.94206 20.6904 7.58659C21.3716 9.23111 21.5498 11.0407 21.2026 12.7865C20.8553 14.5324 19.9982 16.136 18.7395 17.3947L12.3755 23.7587ZM17.3255 15.9807C18.3044 15.0017 18.971 13.7544 19.241 12.3966C19.5111 11.0387 19.3724 9.63128 18.8426 8.35224C18.3127 7.0732 17.4155 5.97999 16.2644 5.21085C15.1133 4.44171 13.7599 4.03119 12.3755 4.03119C10.9911 4.03119 9.6377 4.44171 8.48658 5.21085C7.33545 5.97999 6.43824 7.0732 5.9084 8.35224C5.37857 9.63128 5.2399 11.0387 5.50994 12.3966C5.77998 13.7544 6.4466 15.0017 7.42549 15.9807L12.3755 20.9307L17.3255 15.9807ZM12.3755 13.0307C11.8451 13.0307 11.3364 12.82 10.9613 12.4449C10.5862 12.0698 10.3755 11.5611 10.3755 11.0307C10.3755 10.5003 10.5862 9.99154 10.9613 9.61647C11.3364 9.2414 11.8451 9.03068 12.3755 9.03068C12.9059 9.03068 13.4146 9.2414 13.7897 9.61647C14.1648 9.99154 14.3755 10.5003 14.3755 11.0307C14.3755 11.5611 14.1648 12.0698 13.7897 12.4449C13.4146 12.82 12.9059 13.0307 12.3755 13.0307Z" fill="white"/>
</g>
<defs>
<clipPath id="clip0_2_127">
<rect width="24" height="24" fill="white" transform="translate(0.375488 0.0307617)"/>
</clipPath>
</defs>
</svg>
