<svg width="25" height="25" viewBox="0 0 25 25" fill="none" xmlns="http://www.w3.org/2000/svg">
<g clip-path="url(#clip0_2_122)">
<path d="M3.37549 3.68408H21.3755C21.6407 3.68408 21.8951 3.78944 22.0826 3.97698C22.2701 4.16451 22.3755 4.41887 22.3755 4.68408V20.6841C22.3755 20.9493 22.2701 21.2037 22.0826 21.3912C21.8951 21.5787 21.6407 21.6841 21.3755 21.6841H3.37549C3.11027 21.6841 2.85592 21.5787 2.66838 21.3912C2.48085 21.2037 2.37549 20.9493 2.37549 20.6841V4.68408C2.37549 4.41887 2.48085 4.16451 2.66838 3.97698C2.85592 3.78944 3.11027 3.68408 3.37549 3.68408ZM20.3755 7.92208L12.4475 15.0221L4.37549 7.90008V19.6841H20.3755V7.92208ZM4.88649 5.68408L12.4365 12.3461L19.8775 5.68408H4.88649Z" fill="white"/>
</g>
<defs>
<clipPath id="clip0_2_122">
<rect width="24" height="24" fill="white" transform="translate(0.375488 0.684082)"/>
</clipPath>
</defs>
</svg>
